<mxfile host="65bd71144e">
    <diagram id="zPHYVXvPu2lphLf9sgFH" name="Page-1">
        <mxGraphModel dx="2503" dy="1285" grid="1" gridSize="10" guides="1" tooltips="1" connect="1" arrows="1" fold="1" page="1" pageScale="1" pageWidth="850" pageHeight="1100" math="0" shadow="0">
            <root>
                <mxCell id="0"/>
                <mxCell id="1" parent="0"/>
                <mxCell id="4" value="" style="rounded=0;whiteSpace=wrap;html=1;" vertex="1" parent="1">
                    <mxGeometry x="-140" y="660" width="600" height="350" as="geometry"/>
                </mxCell>
                <mxCell id="8" value="" style="rounded=1;whiteSpace=wrap;html=1;dashed=1;arcSize=10;" vertex="1" parent="1">
                    <mxGeometry x="-120" y="690" width="560" height="180" as="geometry"/>
                </mxCell>
                <mxCell id="3" value="" style="shape=image;verticalLabelPosition=bottom;labelBackgroundColor=#ffffff;verticalAlign=top;aspect=fixed;imageAspect=0;image=data:image/png,iVBORw0KGgoAAAANSUhEUgAAAhwAAADzCAYAAADNc88CAAAAAXNSR0IArs4c6QAAAAZiS0dEAP8A/wD/oL2nkwAAAAlwSFlzAAALEgAACxIB0t1+/AAAAAd0SU1FB9sGHBEEJRMug88AACAASURBVHja7d15eBXV4f/xz8xdQxaykX1jFxUVxIJAUXEBVxR3UUtd6tpfF621tuq3m7b129alWm1FrdLqV60bqChFUAR3xSIoAgIhyU1IICEJ5K4zvz8uqBGUO1kv4f16Hp48z2Vm7twzZ8585szMGWPt1FxbAAAA3cikCAAAAIEDAAAQOAAAAAgcAACAwAEAAAgcAAAABA4AAEDgAAAAIHAAAAACBwAAIHAAAAAQOAAAAIEDAAAQOAAAAAgcAACAwAEAAEDgAAAABA4AAEDgAAAAIHAAAAACBwAAIHAAAAAQOAAAAIEDAACAwAEAAAgcAACAwAEAAEDgAAAABA4AAEDgAAAAIHAAAAACBwAAAIEDAAAQOAAAAIEDAACAwAEAAAgcAACAwAEAAEDgAAAABA4AAAACBwAAIHAAAAACBwAAAIEDAAAQOAAAAIEDAACAwAEAAAgcAAAABA4AAEDgAAAABA4AAAACBwAAIHAAAAACBwAAAIEDAAAQOAAAAAgcAACAwAEAAAgcAAAABA4AAEDgAAAABA4AAAACBwAAIHAAAAAQOAAAAIEDAAAQOAAAAAgcAACAwAEAAAgcAAAABA4AAEDgAGS6bQoBAGgT23FTBOis1KyotjW6lTOyWN6iUhn9C2TmVsgsGSmZpiqv/y6FBGCf4k+3FGwxVXjUQTIGDJKZN0hm3lAZ/QuklHQZvlQpFpXd1ix72xbZDetl1a2RVf+ZAi8sJnAAOxUceaBcBcNlFgyTMWCwBuSWy+hfEN+ZvsTaspHCArBPMN22rKihohOPkHvUKTLLDpGRP1SGN8XRcirOq5Rd/5miy+ao+h8Pf77cvZ2xdmoufT1wpPSam+Q55vsJTWvVrdb6meMpNAB9XvG5Z8k97my5hk3qsmXaTQFF33ta0aWPqO7t1Xt18KCHA85TalouhQAAOxSdfJQ8U34s1+BxXd/eZhbKc/SVch9+rooW/V1Vd92215YTN43COStKGQCApLKb75T/yse7JWy0Cx79suQ94TpVPPyOik47nsABAEBf50mxVHT8BFU8/Jbc487t2YP2gAr5v/ewSq+9mcABAECfDRt+S3mnz5D/ysdkDhjUe+tx9NUqv202gQMAgL7GdNvKu+BK+c67Q3L7u+177OZahefequD9MxWae4vsxqrdTuc6cIrK73p2ryk/bhoFAGAP/OmWcqbPlG/6r7v1e6z6dQree55ql67Z8cnzKnj7caVc9YSM/KG7ho4h41X+lznacPXJyR/YqEYAAHyz7MnHyXfGLd3+PeGX/qjapWuUPSRV/Uv9yh6cqtp3qhWae+vXzuMaPE5lt8wicAAAsDcrmDBMvhl3Sm5f5xcWDcVHFm1pkN26RXaw9fP/sqMh2VUrJEmxUCz+N7zj78YPpUjwaxfrHnWKSq7+cVKXI5dUAKAXePyWIsEvzvlcPpdyDi7VprfXUzhJxnfmLTLSB3R4frupRtGVC2Rt+EB2/VrZLZtlx8KS6ZbhS5XRv0Dug06IP/HiT9vtMgx/uuT65kO2d+q1KlzzpgLzlhI4AGCfDRgpliJtpgrGD4m/BiCzUGb+EJl5g2UWjpCRka/oB89Ib19LYSXRNss7fYZcw4/o8DLCz9+qqr/8ac8TPj1Pg+acLs/486WX3tTWje17MzzjzpPMPRyyXR55p90ozUvOcToIHADQjYqmHSOz9GCZ+UNl5g+TkVkQH63X2M0Q1d345AOci7SZ8p5wnfMejW1bZG+pkll6kIy0xHtGws/fKu+0m1X6k80KL/q7FGqV4UmR+/AZ8hxxSULLcFWMUckl31PNQ/cl3TDoBA4A6Ebes/9XZlZxYhNbMQosiZRc9WMZWSWO5rEaqxV64GIF/vOeBj75qTyTLlbRh8+r5sXX9zhv1b1/Uam/vzxTfijPhAtlba2L94b5Up0d2I+8TNb9f0u68uSmUQDo1tPkIGWwl/JMuMDR9HZTjUJ/u1B1i96VJ8VS+OU/S4Yhz9Rr2k1XMGmECo8epcKjDlLOiPbvptp4+2/V9r9TFHntAVlVyxVZeK+ibz7m7MCeU6bimd9NuvKkhwMAgC8fsN22Cs+f6ah3w97epOCsi7Tp9Q9lRQ1ZUUPVf/urykefKtewiSr5/rUyUnPkGjZBRkZ+/IkX25Jve5NSA58otmyuqmf/S5IUWPC+tOD9dssvuzVN7kNOSjwsjZ8hPfRgcpUrVQsAgC9YUUPug09yNE/o2V9q24dvKval+yYGlG5T9JW/SpK8J/xUniMuid8gnJodfzrFny4zu1TuA46Vb8Ydqrh/oYqmn7Db5dfe8j1Z9esSP7gXH6jCEyYSOAAASFYFE4fLrBiT8PSxTxer5uHZaq73tPvcPWySPFN+5Cgk+C/9h0qu2nU8jXBLROHnHIxyarri359iETgAAEhGZvEBMr5mPIxd2LbCL/1519Ayfoj8lzwos2h/x9/vPelnKrn8+7t8XvPkHMVWLUr8dww6TJG25DnMEzgAAPgS1+BxCU8bW71EgRcW7/K576zfy8gs7PA6eE/6mQqnjN3l8+jSfyZ+gC87RJlD8wgcAAAkI7NoRMLTRj94Vhm5kXafFZ93llzDJ3Uy9Xh2OwZI5NO3ZDcFElqE4UtTyrARyVOuVC0AAL50oM4q2u3ndlONIkseVmThfbKq/hs/iOYPVXPDV+7dGHtul6yHa8hEFR4/od1nm5YFFKtenvhBPm9w0pQrj8UCALBDwcRhMry73r8RW7lAG645p91npT/5pTyTr1TRurdV8/izkqTCSSPkKjuki7oETLn2P1p6cUm7j60Ny6QDjktsEVnFMt12Uow6Sg8HAAA7eVMkd/seC7t1s0KP/3SXSTfedrNi1R/JM/nK+AHVbcfH7kj0htNEDtJF+8ub7lFacZoKxlUoJTdFdnh74gvwp8mbYidF0dLDAQDADoann+RqHzis9e+p9q0Nu53e+mi+3JOvkCSlZUal1OyuPUjvd4SKH/xIsm3JdClF2uNbY9v9Hl+qXG4rKfoXCBwAAHwRISR9pUfA/PqDtW26JOuLsS4MdW1vgm3FpND2+Dq5PLt/6d83zW8nT8lySQUAgJ3CQSnW/qkTc+C3VDBh+O7P2kedLLt6hSSptcktu3VLl65O7OOFWjdjlCq/O0Zbfnq41p19oMJzb018AaFtikWT41BP4AAAYGePQGibFG0fOIyUDPnO/aMKJg5r93npjX+WmTsw/pI2xYdEtxo3ym5r7rL1sapXxoNH2NLWDa3xA7eT8T2CzQq3Jcdr6rmkgqThT7cUbEksA/vTLAVbyct9lSfFktdvKRw0HY2UaLpteVPshOsR8FW1S9do4OXNUlpOu89dg8cq5ccvquyk16VoSK7yUTJyKxR+4Q+qeXb+F/MvXqXy096Ta8RRnV+ZWESxlf/ZtZ6XHpx4YNlSmRRPqBA4kBRyRhbLN2SkzLxBMrJKZGTky0jLkdze+DVL24p3c4a3yw62yN6yUXZTQNbWGjXMf0XhZl7/3RcUTBgqIyNPRkp/Gf36y0jJlPypMnxpkjdFhi81XicMV/zvTpGQFA3JjgRlN9fF/7U0yG5Yp8CrK/euQohFNKCwSfWBTCpEL7KaquUaMHCXz42UDLkPbv9yNXt7k7IKQmqs9X3+WfSNf3ZJ4Ih9+roC899pv598q0xm8QEJL8PetD5pypXAkYDic8+Q+mW2uzFo96dXLtl1q1Uzd1GPrl/RSUfKyB8qWbE9rJ8pbW9S9aNP9nqZFh5zqFxDJsi1/2SZBcNkpA/o2LY5s05W/WeKrVqk2MeL4q917o06ct45kj91z3domabs6hWqmfdGz9aRkyfLyBucUB2xWzar5vGnu7bHwm/J5ZGCLaYKJgyRkZ4nc8AgmcUHyMwfIiO7REa/LBn+9PZhohPs7U2quDAgq3KZYp8uVv3zc2RHtifVuyV2Kf7C/eSZfIWKvSldv3DDkLZvVfVjie3/RcdPkFE0IoF2z5Dd1qqaf/1fj5ZV3mEV8hw4WZIhfeONmoZkSLFVr6p2yZrEAkfVR3INTexNq+5Dp6tx1t/bfVb9xLMqO/Q0uQ8+sVPhMzz3ll0+dg0ZLyMjseHK7W2NaljyDoFjb+I95aaEx8SPvve0Mt6cv8vIc90lqyAk19jz5BlzWmIVsCkg9WjgiHfleVIsRdpMFc84R+7Dzuz8sL87l94/X67++XINOVw68XqVn7xY0Tdmq/r/nu6xX5iSlybf6b+S+mUlNH3ktb9LPRw43BMvlPugxBo/u36t1EWBw5vhV+6RE2WWj5ZZOFxGdonMnPJ4D1Z317x+mTL6ZcosGiH3uHNVfOrNin70sqJv/FOB/7yXlG2Na/BYuQaP7bbl21uqpQQCh+m25Rp9qjwTZyZ4YNsi79xne7S30V0yQr6zfp/w9MFZF8l0r07o8kJszVJ5jro8sW02cIwKT52iwDMvtfu88vqZqnhwicyCYR36faEnb1DglWW7/u5vfyfxnpr17yVVDzCBI5GdKdSqhK+ARdoUi/Xc9bJY1JQibY5+S4+KhSRJ+d/5gTwTZ8rIKevWcOMaPkmu4ZNUfvj5iiy8t9211W77icGo7GCrjAQDhyKhnq/EYSd1ZFvne3xmzpTnW2fKKNxPhj8jKfZjIyNfnvEXyDP2HJVOfEqR/9ypTW+uSprr2z3VliV0oIoaUiTxA5UdbFUsFOnZH2NFHU+f6La2a1fL3t4ko19il7a8x1wlfSVwSFLw/pnynX+nXA5eda9wm8LP/UbVDz206351wXmOlhWrfF8ev6VIkKdUsA8wM4tU8eASeafd1M1h4ytnHcMnyX/5v1R60+1shN44kxk5RebAbyVN2GhfOTzyjD1bKT9+UUUXX83Gwi4CS9fIWpN4L6Rr8OEq+d4VyhgQ+coBf5kir9yTeEDYsEzBv52vqll/2+X/CsaVy3vCTxP/EdGQYiteSZqwQeBA9+uX1eEuxa7gOXyGBv7rAxWdfJRMt8326LEz6W1Jv45GSoa8p/6Pyn59LxsMux6vlz3naHrvyT9X2rgp7dqZ+o2p8h77I0lS6InrFX72l4qtXiK7pV52W7Ps7U2yNq1RZMnDCs66WBsuP1Y1z7+22+X7zv6jjMyihNfHWv+eAguS69Ihl1TQ5xlZJfJ/b7YKB9yk6gdmUSBo3wiOOV0Vd5do/VUnURj4XPWjT6pi6rWJv23V7ZPv/DuVH7pIze8slSRlnfNjmaUjFfto/pfanr8oe3imvFlZUjSk2ndrdllU0SlHy3XwCTKzSmVtWisjPU+u/Y5wtP6Rtx5NujKlhwP7yFHFK9+Zv1PJVT+mLLBrQzhorMrvfJaCwOc8KZYiix90dnKTka+Uy2ar/4RjFYmlyXPsDyTb+nxgsJ22rGpS7Zvrdhs2Sn/xv/Jf8Zjch5wiIyNP7jHT5R59iqP1sOpWq3r2YwQOoDd5T/qZSq76EQWBXbiGjlfZb/9OQSDeQ9Bmqvr++2TVfupsxn5Z8n/vYRXdtVBGSobCL9+xy1gaX6fkRz+XZ8J3FH7hD6o8Z5jWX3Kk1p0xXKEnrt9luPVvXPf5dyXlJWQCB/bB0HGDii+8QB6/RWGgHffoU1V84QV99weaLjayk+Jy2wo//zvnM3r8MvOGSJIMl1sFY/Z870X+6Hx5j75Kkddmqequ2xSL2HJ54k/VVD8wS+EFid18Gv14oar/+WhSPn3FPRzodXZjtezNlYrVrZFdv1bW1tr4I3lWTHJ5ZfhSZfTPl5E7UK78oTKK9osPENWZ0DH9V8qp/EC1iz5iAySTWET2tkbZ2zbL3t4sbW+S1bpZdmuDFN4uRcOyo0EpFpNhuiSPPz7eRmZhfHyP7BJHN9bttm6cfIMy33hJTas39cECNqhjDlhRQzVPzlHZ6GflHjWtQ8vwHPN9uQ+fofLP3lb0k0WyG9bJ3t4sOxqSYbolXz8Z/QvlPuREyfQo+u6/v7Q7fNFLEX33SXmPufqbQ2OwRZE5v03eQE+VQq+EjJYGRT+ap9hH81X3/EuKhWKfDw729ScN8efJCyeNkDlkvDxjz5FZdkjHml1fmvzn/EladBwbo7frwtY6RRY/IKv2U9kt9Yo11WnT2+slxd+vE24z9ni2trNuuHwu5Z94nNwHnRA/QHRgxE4jLVfpZ/5EzX+4tsfPEqMr5ivy0h0yfP0cv4Y8kd4NO9hCheuAyhsuUcWD+8ssGNqx9iY1W66RU+UaOXVHkonJjrTJcHkk9xdDoisS+vrxTyLB+Ngj3xA4Qv/+uRrf/UDJevGCwIGePWOoW63oW48p8MDdioXaD7O9pyGndz5PHnjtY5lLV8p6YJaKZ5wrz3H/7/PuS0ftb/kolXz/J6r56x/2qcGfkq5ONHymqrv/pIwBETXXe75ywpZYw7mzbsRCMdU+94Ksp15UwRH3ynfi9V808k4axsPOUP7hDyiw+OOeDV9bqhX9aJ7qA1lUjCQT+tcP5b/8nwkPBran8Gf40naTnH0ySw+StHyX/3INPKx9OPnqPrD4QVXPflTJfKcE93Cgx3o0Qk/frPUzx6th9u27hA3HB6kdAWHTU//U+u8crug7j3doOZ7JVyhvwkg2UG8y4s3QV8NGZ+tG7asrtOG6CxSee6vzVfKnyX3Y6fKk9PB9Pm4vYSNJNSx+U6FHrtrz+4g6yTP1GhUe3b7ntuDbw+U5/tqvnSf6/jPaeMt1SV+G9HCgm09fY4oum6Mt914nu7VekrtLXx2+s1ek8qarVPKDjfJOvcbhgSU9Ps+r32Vb9VGN//qDsmJReafd6KxxHDVNkbbfUICItzVBU3VzX1K++1L5zr9z9z0UXdELkF0q/1X/Vum4p2TXrZaRO1DuMdNlpGbvPmy8+5Qqb7xsryhDAge6N29srlTlzy/tkepWdcfvVCpbnqnXOtsJDjxWhcccmrQv9ELnbGt0a9u9d6qsfHT8xrxEw2huhYpOm6raOS9yyQ2SpFjUUP3cZ5UbapX/grs7/JbrPda9lIyEXpwXXfKwKn9zzV5TflxSQTfvoT37QqeNd/xe0ff+7TB2++SZcCHbqq+fob7we9lBZy8vNAceRthA+3oUNBWYs1Btd01XbO1bvbIOdqhVoSdv2KvCBoED3c/o+ca68heXy2pY72ge18EnKmdkMdurD2tctkLRd590NI976EQKDrtVu/gTbbj6JIVfvt3R25g7fQ639g0F75yupqf+uteVGYEDfY7Hbyn8wm3OclFKf/nHTOn5mwTRY4ItpqJvP+7opj+zcJi8GX4KD1+r7t5fq+32kxRbuaBbv8fevEGhJ3+mDVefosArH2hb4953RwSBA31OJGiq5tHHZW1439nZ7Mgpe3w0F3u3wPx3ZG38b+Iz+FKVeyS9HPiG9qbNVGDhf7XhmnMUvONURT94tkvflmzVrFTo3z/XuvPHqHrW/Xt1WXHTKPokT4qlyJJH5CsfnfA8rqHjVTBxqGpfX00B9mHRVa/JWz4qwakNmYXDZbrncy8H9qhm3hJp3hIVHnGAXMMnyXXgVJmFw2Wk5SS8DDu8XXZTQLFPX1d0+YsKPLdgx3tR9v76R+BAnz3rqH5ktgae+FMZ/QsS3Bv8clWMkQgcfTqIWlXLHc1jZJcqLTOq5gYPBYiEBF5dIb26QtJflZKXpqwjJsvMLZeRXRZ/ssXjl+HxxUccDQeltmZZjVWyG6tk1axQYH77J+b6StglcKBPi32yUO6x5ybeyzFonFKzHtkrr48isSBqN2yQgtskf2pigaN/PmEDHda2qVVtTzyn1KzoN7YrqVlRtbW4+nRPGhes0Xcrt9tWdNVrzuYp3p+w0dfPPhcuk7WtIeHpu2usBexb9tSubGt09/nLdgQO9FlW1JAVWCU7lPjYC2Z2qQonDKXw+jh7W2PigcOfQYEBBA7gm9UuWi67sSbxGdJypIw8Cq6va65PfFp/Oo/GAgQO4Jt5UizZmzc42ylyKyi4Ps5qrk14WsOfquyRZRQaQOAAvl6kzZRVv87ZTpHFiKN9XluzgwrhkUyaSoDAAeyB3VjlbAZuEuz7dcLBfT2Gyy3DdFFoAIED2MPBZWudo+mN/vkUWl8X2u6glXRLBk0lQOAA9sDa3uhoeiMlk0Lr65y8xdgweuUlhACBA9jbtLU4m97tpcz6ODsWpRAAAgfQi2ezkgwPj0DuA4mDMgAIHEAXH1tsh6+cdzOMNQAQOACHDKc3/EUjFBoAEDiS/ehGkSYdh/dk2OEgdQRwlurl8tEzCAJHD5eoWy63TTkkU1voS3U2Q7SbA4eLl8Ohr51nueTtn0JBgMDRsyXqksgbydUYOh3IK9jSzXWEwIE+lzjky+xHOYDA0WlW4o/QGd4UtbUyKmFStYUOB/KymgKOpg83Bx09Zmn40tgoSH5Onu7y+OXJ5K26IHB0wY7n4BE6b6oiQYo1aSq425Y5YJCjeezG6u4NpSk0zEh+djTs4EQrlcfJQeDoEg4OJvLRrZhcm86QkT/EWUPbVOP8i5ycDfZjJFPsDSdaiQcOuT0SgQMEjs6fIdvhxN+7YKRmU2jJtg2zyx2kDVvW5o3OzwZD26gj+No6lXhlTZ4m2W7b6mh6I416DQJHp7jctuxtTYkXaFquCieNoOCSRNG0Y2VkFiY8vdVYpcDLb3agcU78deeGP13eDM4G953AkfglWSOJbii2WzY7CxyZRWxrEDg6IxY1ZG/bkvgMKelSai4FlyyBceBhjl68ZTdscPwdnhRLchI40rKVM+4QNs6+04g4qEy+5Fnv1i2OJjfzBrOtQeDoDCtqyN7irIvdzGfHS5rAMepkZ9u7arlSs5y92Mvrt2RvrU18BrdPZk6ZPH6LDbQvcHK5LYmeYLJa6h2FJbP4ALY1CByd3vHqP3N4Vj2GQksCRWdOk5nn7IbR2MoF2tborFt7W6NbVsN6Zzte8QE8zbSvtB/bE78XwuiXlTTrXbv4Y1kObqB2+jQYCBzYDXtzpbNCLT+UQksCngkXOjswNKxTzfOv9kwdGTyODbSvCDq4+TJjgFy+5BnHx26sSjwspeeq6NQpbG8QODojsOB9WQ7GZjBzylR4/EQKrrcqtdtW0fQT5Bo+ydF8sZWvdPg7615a6OiuflfJgSo86iA21r5wwrJ1U+J1N7NQAw7fP2n2I6t2deIzGKZcQyawwUHg6Cyr5uPEJ3Z75TrgGJm8U6V3tlXUkPeUXzibKRZR9P2nO/ydsVBMVmCVszoy8njH94tgL6yPTgaSM0y5CvdLonZvpaPp3QcfzwYHgaMz/OmWrJoVjubxHHqarKhB4fXCWVnpz34nM3+os8Cw7h0FXnqrc41z5QfOGucx0x3fL4K9j93kbORa15BxSRFEragha+MyRwOAGbkVKp5xDjdEg8DRUcEWU9anr0t24juRkVmkkh9cL386O15PyRgQUeGFl8oz6WLH80aX/KPT3x9b+4aznW/AIBVfegW9HH0+cNQ4etrDNXRi0gTRwH/elxVY7Wgez+QruCEaBI7OqJm7SNZmZ2M0eI6+Ulnf4gbSngob6SdeKt/0Xzk/k1v3jqofe6rzdeTJ52U5eTxWkvf4a5S+//5swD4ssOADR5dVjAGDVHT29Pj4Lkkg9vECZweVov1V8kNOtkDg6JTof19wNL3hSZHv3D9TcD0gfdrV8p31e8nlcTxveP6dXbYe1ieLnNWRlP7ynfcnNmAfZzt8tN4z+UpF2pKjeY6uXODsXUGSvEd/X9nHnUzvHQgcHU767z4tRULOCrj4AFXc86Iyh+aR+LvYzuvEpTf+Wb7TfyMZzqtz9P1nVfP0vC5bp8ibjzp7d4Yk16CxKr8j3sPiT6OO9DX+dEuxDe87qxNlB6v0ul93aZvR0ZvYA/OWKrbuHWczub3yX3iP+k85W2l7UegoPv88lVz5Q5Vc+QMe8SVw9K7Awg8VXTHfeSEPHKOsX85X9snndGrH3x2fu1mKhpK30KxYlz+ts7MRzjt7pgY+tlye8ed37KyzqUaVP7+ka+vIvKWKrXI+lodr2LdV8cg7yj5+WjxMdWF3empWVHLwqnF0rWCLqdgniyQ52w88R12u3Etu6pJ1cPlcKvruFaq4+3kVTh7lPJh35B4nbz/5L/yrsi79XZePLeJPsxy9MHFPCiYOV9kt98vILpG9pUpWw3q5ho5X6U9/SwUmcPSeyIK7HXcvSpKRVST/BXer4q/zVDhjZpftgK4Rk2UWDE/a8jJSs1Vw6snKHJrXJcsrPOJA5cz4oSruXyTfOX+U0b+gw8sKPXVjtzy6HHnlno7tjLkV8l/0gMrvnqu802d02fr0H3uEDIdP7aCLT1ZeelOx9R84ns973A9U/ucnVDTt2A59b9FpU1T289tUNvsjeaf/Wuagb8kcPNbxcqofe0qxz97uQANgyHPUZSqb/ZFKr7m5Q2FndzIPGSG3w3F2vrGcp/xI0feelgxDZtkhcpUcpNgnr0qxqEouu5oK3EV4Js9pw/Gfd1U2/gm5Dz+vYweVikPlqzhUZSdcJ6v2E8UqP5S96TPZzXWyI0HJikkyJJc7/uZIt0dGWraMtFwZaTnxv5lFMvrny/CnyUjLkVze5A0cGXnyX/ygfC0Nymyuk1W/Xnb9Wtlba+PvatjeJDvcJllRyYrJjkXjZ4KGIcPlkfwZMrOK441AxaEyBgyU4U/v9HqFX/qzap54Ll7WXaxmzkKVHf6c3KNO6ViIHDRWrkFjNfCkGxQLfCK78oN4uTVvitcR24q/kM7cUUc8XhmpOTLSc2WkZstIHyAjq0hGRp4Mf7qM1OwO3duCLjyzc9uKvveUXBWjndeH/Y6Ua78jNfDUTxRd85asmo9kb6mSHdq+Yycz4+2Fr5+M1ByZOWUySkbKVbifjKziXZc3eJw8/nscP0kSnn+HUi77Z8fagbRceY65Wp5JF6ni3LWKVS6THfhEVmON7GBzvN2zbcl0afNDxgAACHdJREFUfdH2pWTITI+3e0rNkZFZKDOzSEZKhpTSP/63K05iTjxCsixF33tG/sPOUnjOb2TmDpTn2xcp9MzN8k67mQpM4Og9lb/6gSoeOszxWA9fPRC7MvLkGjZpnygzIz1XRnru17/gyYpJsahsK7LjgGrKcPu65UAZWfygqm6/pXvryA0Xa+C/lu22wU+4zPoXyN2/QNrvSHa6vZwVNVR9/32qmHSxzAEDO1YfCvaTp6Dzg4K5SkZ26LHVwDMvq3TYvfIcdXknuhL6ySwZKbNkZPKEwawS2c11Uni7DNMl36n/I7nciix+SPbmShmGlDk0T02rN1GRO1vWFEHHhJ74WYcureDraqJL8vhk+NJk+DPib83sjrCxdLY23nJdt/8cT4ql0FM3sl3RrpcjsuAvvR/+s0tUeELHXr2w8Q83Krbxv31qu9hN1TIy8iWPT7ZtKfL6P2SH22TVrpKRnitbJmGDwNG7As+/qtCTN1AQe5HIwvu08dc/6pnvajNV8+QchZ/9FQWPL3o5/vGwYisX9O6KGKZcZR2/lyL00GWyNm/sM9ulZu4iye2Re9Qpsja8r9j6dxV57X65Rxwp97cvkrX+HSovgSMJQsfsBxWe8xsKItltb1Lo0R9p4x9+0eNfXXXvXQq/xDgb+FK78cuZsupW9+o6dOZSbu3SNQo9cLGjN8kmu/C8P8k97jwpGpaZN0iKhmUUHSCjX6aq7rmDSkvgSI4zlqp77lBo9tXxGx+RdGIbPlDbXadr81MP994B5i+3KPT4T2VzCQ6Sws1BBR+6LH7fQG81/KUHdq5Ov/KB2v5ylqyq5X1im9Qu/liV18+UHQ3JPepUuQ86QbGPX9HG3/6ECtuFuGm0Kw4o//eY8htr5Jt2k8yyQ5J7ZT3+Lqg13qTfJvbWWoXn36nqWX/v9WwdixoKPDJLBY1V8p78C5lFI/p+HcE3H+AWLVeBfbb8M+/rlcfajbRcFZ1zhmoee7ITPR2rpaWTVXrT7fKMO7dDA+/1bMpyyXTb3/hSzeoHZsnjt+TyxMdPAT0cSdnTEXhhsdZfdqzCc2+V3dKQhCsZk926WVb1R50/mNevi/9G2066n2m3blbk1b+p8juHaPPj9yVVHal55mWtv3iSIvPvkL29KRkrcpfVESRwwH51hdZ/d6KiSx/p2S+OhhVbvaTLLonU3vb/FLx3hiyHo6n2WJsQbJG9eX28bifwBu9I0CRsdFfQXTs116YYuo7LbUsut4ouv07uw86QkVPWOysSjciqXyurbrWsjf+VVbVcdS8tUiwU67KvKDr1OJnlo+UqHy2z5EAZ6QN671hZvULR959R1T237xX1JK00S1lnfV/uMWfIyCzsnZWIBGXVr5NVu0pW1X9lVa1QzZxXumTRZbfNlvvAxIaGjlUt14ZLJ/foTy++6GL5zvxdwtO33XasAq8s67b1KZx2rDzjz5d75PHxMVa6QeyztxRb+7ZiK/+jwLyl3VOu55wu94QL5RoyvvcCRmO1rE1rZNWslFX5oazAJwq8uoKDE4Gj7ys6barch06XWXyAzAEVXT5Ilx3aJru1QXZLQ3wgncDHsmo+kdVUrdolayTFhwLvrsTu8VuKBE15M/zKHj1MZv4QucoOlll8oIzsEhkZ+TJ8qV3fqGxvkt2wXrE1byj64VwFXn57j92lSVtHzjxF7tGnyiwcEa8jZtde6bSDrbJbN8tu2SS7eqVitatkBz5WtL5Km95Z3y11pPjCC2WWj5JiexhS3eWRvWmtqu67u0fLvHDqBLkPO2PP6ydTsqNqmPVbtW1q7f71mjJW7lGnyDV0osz8YZKr43XBbmuOn3Cse0ex5fNU8+IS+dMsBVu7/+y98OjRch10vNzDj5CRWx4ffK5LzzBi8TavtV7W5o2yN36oWO0qWfXrVftqvIdub20PCBzolJ0Vv/Do0TIHDJSRUx4fDTCnXEa/TMntleHxx8eikGRb0fgYH5YlO9gqhVplh7dLwZb4TtZcJ6tlk9S6RXZLgwILP+z2YNGRECJJhUcdFB8hNbNIZlaxlJEnI6MgPnqqPy0eRlzeHb/dkMwd62/bX4w+GtoWH1mxsUpWwwZZtZ/KblinwOJP2n1Xn6gjx4yROaBCRk5FvI7klslI2VlHfJKxY0h8KxIflTUWjb9TItS64+822c2bZDVvkt2ySWrdHK8ji5b3eB3xpFiKRYw95A27196Kmsj6fX5868ED185tVHjMGBk55XIV7Sf1L4yPupmeK3lSvmgvbEt2NCw72CJtDcjaWidr0xrZDZWyt1Qq8OqKXmsXdtbpgonDZeaWy8itkJlbISOnLH4i4vHH6/TOkzDblh0Nxv+G26TwNtltrfG/2xrjI+0218XDc2uDwoFqbV5e3WfaAAIHum0nTJblJJuckfGRObfXbe2RM0rqCPpiXejL2556TeAAAAD4+rBIEQAAAAIHAAAgcAAAABA4AAAAgQMAABA4AAAACBwAAIDAAQAAQOAAAAAEDgAAQOAAAAAgcAAAAAIHAAAgcAAAABA4AAAAgQMAAIDAAQAACBwAAIDAAQAAQOAAAAAEDgAAQOAAAAAgcAAAAAIHAAAAgQMAABA4AAAAgQMAAIDAAQAACBwAAIDAAQAAQOAAAAAEDgAAAAIHAAAgcAAAAAIHAAAAgQMAABA4AAAAgQMAAIDAAQAACBwAAAAEDgAAQOAAAAAEDgAAAAIHAAAgcAAAAAIHAAAAgQMAABA4AAAACBwAAIDAAQAACBwAAAAEDgAAQOAAAAAEDgAAAAIHAAAgcAAAABA4AAAAgQMAABA4AAAACBwAAIDAAQAACBwAAAAEDgAAQOAAAAAgcAAAAAIHAAAgcAAAABA4AAAAgQMAABA4AAAACBwAAGDv8/8BJHXlaQvum20AAAAASUVORK5CYII=;" vertex="1" parent="1">
                    <mxGeometry x="-140" y="920" width="200" height="90" as="geometry"/>
                </mxCell>
                <mxCell id="6" value="" style="shape=image;verticalLabelPosition=bottom;labelBackgroundColor=#ffffff;verticalAlign=top;aspect=fixed;imageAspect=0;image=data:image/png,iVBORw0KGgoAAAANSUhEUgAAAlgAAAGQBAMAAACAGwOrAAAAGFBMVEXC0+MxsOUCcrqZCA8BP4W+DhfSdHn///9iGeoYAAAO4klEQVR4XuzWwWrbQBCAYYOx/TqFYfMchWWda8DIuRpC5NevFlVSqnjtpNBTv183HT9mh9lcv5z+RyxYsGDBgiVYsGDBggVLsGDBggULlmDBggULFizBggULFixYggULFixYsAQLFixYsGAJFixYsGDBEixYsGDBgiVYsGDBggVLsGDBggULlmDBggULFizBggULFixYggULFixYsAQLFixYsGAJFixYsGDBEixYsGDBgiVYsGDBggVLsGDBggULlmDBggULFizBggULFixY+3Mp5fxyfRysLkeqHV8fAMC6dBE555JKLg+GC1a1qpX6/bwHAGsXkaMOVi61O1qw+hwROaVU6jfUfomwTtWqNloNtbY8rL5aRRrKuYwdD7DagxU5V60ycR1htQarlofKwFXuPERY25Eq6jMsSwdYN4qxPFZXfOt+gPUeQylyqpWScnu0YJ1i0SopSmrveFgRk9ZQOp73566x42H1k1WqvYz/upujBWs77/eUYp6lndHa3FlZkVL8XAD2n0cL1iU+TNZHgP2n0YLVT1aR4vm61jrC+thb/C6ltDqsdqvRgrWdD4d4WgN0f57xsE4xlZ+vN7QOsJZmqhyfn1xfyiII6xJT08paa8Ga62MqP90C6G6seFg5ftwCuCzXA6y3xn6f6+fRgrWNucYq79bXA6wUuTFBlwJrfWblaD2391kR1lzz/DzDGmufWUs9rLFoTZY27QM+py8DwIrvYMF68Axh9TNV+heTZbJMVjyeLFh/MVmw0rfuLM/w9T4ArF+sm9GKozAUhm2Remu8mdvN4cA+wKy930PeoLjXM3Tr3qZlmOdfPUmqYtTE9KuIDFTw8/+PYYosy/ISWToLJORcQScLK0SRReGVdR9q+ApZmYBgRLGh6hOVg7oPMkCzE8lN8dlBxFKuJ6t10fho2xNbjeaIRBAKQrnm6uA89SDwnr/FBxNIrnrXYg/F2oD/YFOnW2Npo33pI0IUa7ZOTlW3Q0QjDBGd6KkvWay7kiKe5UXpue+gbpsxbWyuFMCrbN1t+1AR2QYCIUsi8PBj2VUlKtFt0RRLss4F/zTh2PXiwB3BXFEMS4lQDqfK1g+B/L7eFl3tDJZ4W5B15lhdmhkRM18jIUQj/a5yZUDieBFj7wSC2U2hBe1CVhyseGHlfA45V9+3S+MhPFs5Ec+UOPyJeKgn5FyZ1BIRAAGFFvEgJ8FKl3Uueld14+NPcLCUu+9xvn77EoGjBQO7GmyBE4Xb2rmEUva2KhHPXNbVuLrUs2DFvTmQ2zsPsfycu/pST7D/WMAWkcJn/FHIoYPpybr+YlfuXYG9Y0u79RBQ+tRCZTET6xktGCpIQQ8LLftksanu4AWy/nGu+P2mhCLmChFNB5On1rcaIOWKaEeWEQZh0TpIyf2TQqY+DZlOn+ZMXZqEaGl7PQiYHq183EKiSQ2NKwxbh+jeVVVxDVPXWY4L06RE62EuKdKUvz5aOYg3RBp6OOSKtsffnVtoVqRV8gqeudUdfa7qZne08vHIorQR/zVpIZEaTCFYXRiU0apD7NVV+GSd3jtNtoN7H4haKXR3HlMXpn/VFOI+PhdbYPdAuJFRLaVkVRywimd8yn8d7HDnF1jrRWHbLVSuhkCEpCLrWPhbyCApQhiWWdYQBjwrHsaR5PGehaCzItO8+X/dub4/J1bd7O1hrtiWaYosy1IczNYfdfBfxgeiWrzGhxqgz2wLASP+U3fGvm3rQBh34rpcEyKAV5EQ4DWAwL41aQ10DSDIXgu4eVplt5H//UIkpSNF0qJI8aGPmcLJ+OG7784n3TkbRWFHitv7wyKd0o2cjC7LmDjkYSLi8AF5fhIj55u5MENejSEKR6/ee1oEWMXAamHUVzmHf1EHFho205YlXXjv/7EabDctaI+++raG7AF9ppwWsIqFdSqYXKoCs+Sw5ajxnP+9yBSf59mcXqFuWmbhgOZj3+pfdaSzxw4NQBAycWRRqq84at4nTAsih6fD11kyP4Np2cr3OgB7psIi/ODH7SKwmrJfbdSvc9CWZ0E/cGLK4qmTVefwMz8WtlRav7UgnBuIZFxlddpaZmhgU7Bh6J7bFoPeqEbrMGVZIhtyYYVIK7P4ex2kUVVuUlnbRWC1fA0UPxUPw9IC5d0HlqS1myt0EITp77OwP5nudyZYaAstAuvUsWIFZ8VD0caknU6Hbd+oE7IMCR+z+f4yC9YF3G+UDAmJGxoAYQ2sOssq7PqZTocXwYq7TGAcIiMZ7sICGmDdY8LPLhIWlA2s6KOQlZ1ffTZRbJR02Nx6upB/n690gDVOhoEBvVNUi/nZRsECYQlaYm1WyTpW1pFDgNXWLlhddyDASfFYEJdAWNhIFffSshaBdVI30LCK1ZzfP6Z9q4WWBRZ4MgqHtRtXDi+B7pcp+EQcogVgtSqqsip+iLLri9206luzFn17IEDplzGsTwArzOEBlvSsJYYG1nK8SfAqDoJVwWzFA8B6d8Pah8A6gyD0Ztb3QFjABpPFYDWFyIVSWWyY4kE2hwdYljhsJKvXJWA9BcI625RFO9OKgwXCGmoHVg83Jo0PBdbGDWv/EgGLjJU115YbgLW8skpp76J2eIPx32dLOgRYH2/LwmpcyqoDYUERQjHFirJWPgdZYX1IXUmHRzDwxG7DOtgK+HhYZFzAo2hYmHKLlwH+SEUHYuI82GCdBCv5V8sLu2k1Cqy2soTSkrDyxZSFiaKseyoMjBBymxYyYcEQSne+wAWYlg4LwXS5U1lZBKzXJMoCzxKsMJ58jP9gwvoFm42EsMqBXvE8F9b5bwjDKzY9C7LhmVIOrsM1cUxYsLiu4O6+LuAwC6wDgDMdvv07YXFW0rMulAhc/Fkr9ozDFUThAAyp/xelaVoarEOabBgNizqURbhlyZCUvGbBWhdQZUHZ0N8db8Kq/kfKEtlQ9s2ITIcTKXE7hlUWUDl0Qmo0ZX0xw/CogKtdyoqq4KNhPRnKooKWTIYyG2I8Q1lGFHIP+qbSYqay6glY8d8NkyiLkMGzaF+jwjuTfrDWUDgUBYIbx+aQRgX0Xh2X/CJ9+W886zywIgRYeWXDUwHnbby9h9+5V2i9Kw4frQZoQ23TKIv2FTzmcSjfxp22LIDVqDJCxvAvK5h1KZQb1qf45t82iWdB1+GOin/lOzXEu4IHGTFu5mBa9sHDtjqqsConrF1EDz6JsngRL8emZImKvewdYJ0sI4ZrxbLK4jiCVTs2Jpqt4ODGSrJs2LthIw5ardAKoVXTNF4tGkNYoDbrPruPCmmwahesfbC/k2uiCh7juH5Wq9u7uWWFMb2I3xz0HvPR0Ed07JBrgmzYHUyyCFi6iAAKyM0o4jdvvrBeQqMwS6GsTlixnVKoqSAK1VvRtFH51Dosd+2wR4FP73cpPAtTimOVZdi7sbKgZFpTq7pOwfoZJq2GQuwkyoY00rOMKATTgraNEmrNYRLW7zBpYQrJMF2dFQOrNaMQGs3w4FXRXD2CVSH3sM3rDFp3ykBKEs/iuGKUpfr70bGCs2RqHH6gSVjNPoDWnTpikSIb8uYfjVGWCgXZN+HyAxnwh/ks32la+X7/9XHlwQtpCyC2CZUVZfAnV/9YXgpcFRtIIg9Yv9XRkdxzqwOcaxrPwoRGKguE9Wxfos+Ex0OMGrCOrmapHLIRmyummUGVlUZZJNazGodlQRxKZTF7trfDuubKpM2wNOSr/3Rmogo+0rNa96ZNcPeOln15cOuYTvkEI2/Dob7nmlpZ8bCYdcsyvMB8mAOr2eu08hnCyq6JPIvGetYva5UFccjgpdzaBcuG8ae+4YPm/rhQKmVhGlnBQ+VgvhCpvd7GrD888OGCde6FlctROkpz79HMVJ5FCAVlRcGqHdvOS8nKOrGzAVguacHwt7+9p6qzKMYkEaxWqUorNnPe4jJEobJgJ/cVVqJOKaVRXYfTrbXT8reKCsaPTVoVwHJJi3sWZ+XpWImUdS/icBlYFpRrQWsYFDNcqwFYjoSYD6z8XCtz1CDBD9XggkuL7CJgfXMlQ4jDfkKlMmutFmC5By1kqeWVCwmyw3oJbecTfUKF0G2cstywrifuWEBr3GDYwBSwKxBzUJYHLVe353vog6KddoE5vESw1sPbgCIOxyK6/eOjTQ6eBXE4c4td5LAGGgXmwxKwHL9I1KHi6uqXHv0wohBgmbR+DkX8XhRbN9VlHatpo95eytQLDFXWgp4F58T6XCjiUM+I75PLaT7jPg5zOiEs8oDs1jebFZhUpuO7W6FrCmWBxfeeVVZVqdNqK4AVvQH3D3lnsNowDIPhwUj8QCZ9joCQczWYplfDVuv1Fzx3Sos1w3b8v0CPBT6cWAKk/7d/kD9iqPlfUWrLEvopHpiqK7VVrioLApV1kS731u6cN4hE9+SKV3hZ+onXEPzjqYQ97jsznKyPgSx5Xxavmx66bCiyPkfBMaV10vU+5C43FFllmN+U2slSVbCyZCireDotEenhYGQljX40SNrw9BEYWVahpZTqyn4RA46sMo4GS56I7ZO14sjK44S+8t1J16fDhiNLzO5QScuBvbYUSNao0mpHi806S4Bk5XHOjlwXslTxiiRL0vhoZVrYqrM2KFlaxEexuNvfLAclSwd17HSwnLQ3BKuyzOHMi2mrWL3ODUxWTmornkQ+eZg8E+hdaE/fh+hExM37NbiXG7HX72xgsvRCpOX4YQp8QK/Bmbnb7wierEynKem6RMt3RgE6sjZAWVJ0nIIq6kqZvHEVgsmSuY1DP7bY3aTDRKA1lspSW49FpW2l8tDWBpvJOpNvcBSLmVgJwAG2eWfyVGMFbIq6iuBpv28xOhmwcyXEr/bumAAAAIRh2KROAv4vJICAVEIM1Br50aTH0BaWYMGCBQsWLMGCBQsWLFiCBQsWLFiwBAsWLFiwYAkWLFiwYMESLFiwYMGCJViwYMGCBUuwYMGCBQuWYMGCBQsWLMGCBQsWLFiCBQsWLFiwBAsWLFiwYAkWLFiwYMESLFiwYMGCJViwYMGCBUuwYMGCBQuWYMGCBQsWLMGCBQsWLFiCBQsWLFiwBAsWLFiwYAkWLFiwYMHSAkrsMPjCI7tcAAAAAElFTkSuQmCC;" vertex="1" parent="1">
                    <mxGeometry x="-90" y="700" width="225" height="150" as="geometry"/>
                </mxCell>
                <mxCell id="7" value="" style="shape=image;verticalLabelPosition=bottom;labelBackgroundColor=#ffffff;verticalAlign=top;aspect=fixed;imageAspect=0;image=data:image/png,iVBORw0KGgoAAAANSUhEUgAAAywAAACgCAYAAADuFOijAAA2FElEQVR42uyd728b17nnzxlSctImW95FXxTYxKGLdWqgTkOjfrXo1tS22F0Uu7W02Je9MfUqBRZYW23uArebQlKb9mLbBpLfpa9E5R+w3ALBvuheUW1wsbtQaqZ1Udd+YcYpsLe4/cEkTmxJ5Mw+z/kxc4aWxCE5/P39xJMZSsPDmcMR53z4nOccIQAAAAAAAAAAAAAAAAAAAAAAAAAAAAAAAAAAAAAAAAAAAAAAAAAAgClFTsuJ/mbufIFWuSN+Xf3s9m4dlwMAAAAAAAAQln4JCcsIS0kxEOIZEYg8rfP0mNeKIAgOrwQp3cqoSP1gh9Y1IzNVXCoAAAAAAABAWDoVlCItF8lDCqQiBZ822El8IyeBWltZESI4qgJkVBFSbUvhSb3taaGp02aVHl9noYHAAAAAAAAAAGE5SlJKgZaUIguKz4ISrllKglBOQmkR+n/BcZVgpEVqQXFlRf2MBcaT0q5rtNqih5uQFwAAAAAAAKZcWEhU5kk2LpF/zDetnND/7DaLiJUWKymuvBhfCcWltQakUxGeibDIMMJi5CWSFbXOOPJC6016apnkpYZLCgAAAAAAgCkQljCaEojLJCP5JokGC0rTj6IqzVh0JQjFpTXCojzFEZWg5eRNCouJrugtN8LiGXHxPLM24pKhjYyzTb8u0+ZVRF0AAAAAAACYUGExonKFRYUEJdfwIzFputst3cGCMNoSRV1skr27fVQ1SBkJi3Qee2GXMNnaLUxHWYy0ZIy0ZPl3nuTE/VUSlwouMQAAAAAAACZEWEhWOKKy5opK03T9CtehpOjtwI2wqIR7G2GJIi3CPLYEh5y8NH3DPPOLKPH+eGHR0iLC7azniIuUHHFZRVcxAAAAAAAAxlhYSFR4KOI13w8KB0ZUlLCEknJYdMUVlbi0mK5gNV5oo0rr98zJVlpf2w59rLqCBeJ5WqvRx9xke90tzBWWw6Ms2bCbmBYXKy/0b/Xs9u4KLjcAAAAAAADGSFhM969lko0rLCjuwlLScITFtxEXKyu+2yUsqAcsI4HYoXX1hVu3K70e2+aZ03lSliJV0PNUS7wuhLkqjrhEwmK6hqnoiomymG0jLpycv4huYgAAAAAAAIyBsPDM8yQX15p+kD9olRVeB49GWHwrLL6RlECUAxHsvHDrzla/j1cLjJiXUl6kddEVlUhYWExES9ewKNoyk1GSs352e3cJlx4AAAAAAAAjKiwkK1fIOdZYTlplpeH7cVnxnQiLr3JUtoIg2ByEpBwvL7JELnKJBCSfcbqCZbxHu4XFpEWveRLKBeS2AAAAAAAAMELCYrqAbZCEzB+0yMpBS2SFxSUUFl9HU0hWrl66dWekGvmvnzldInm55Hmy6AqL2y2M1zOxSIvH4lL3tLRUcBkCAAAAAAAwZGFhWQmE2G5wYn0zkhQVUbHiEkRdwqy00I9W6f/rJCr1Ua5IEpciicsGiUs+e1iUxfPcCIta80L7L57d3i3jUgQAAAAAAGBIwqLyVQKxTYKSs1GVg6Yf7w4W+EZS9OL7wRYJztILt27XxqlCVcRFyjWSlVyYx2JkJeoW5oXCwnkttE+ZpGURlyMAAAAAAAADFhaWFfIPjqzk9pt+GFl5JLpitklaarRaTGOkr2GxeeZ0jip22ZPyipKVjM1j8WIJ+KG46N+Xz1YgLQAAAAAAAAxMWKysqMiKiagcmOjKYV3CfD/gPJWlNLt/mbyZgnmYN4uFX6dqtmtpJ8GbbmLXSFBymUxrtzA3yuKJWS0ykBYAAAAAAAAGISyHycp+kyWlRVZUPotfN1GVrR5fU036GAhxIQgED5tcCIKAc2fMrPd6YslYBfCwxKYmPD3DfZVWPIrX2/TTrV4lxkRbNjKeN+92CXOS7yEtAAAAAAAADFJY3JyV/RZZcUXFyEuVpIJk5U61B0kp0etd9EVQVEMfB3qSSV4Hdm2khQmck5emBjxnZnvPTAJp5lep0eYW/WiT5KXabZ28fub0CpW7nDWSYiMsLC6zVlxYWnT3sHWSFszVAgAAAAAAICx9kBU1GthBMygcJStqlLCmmm+lQjKx0E0XMHodjqRc9v1gnuWkEZu3RUuKb9dC24qOsrRUgLTiYmawF2bdOnu9kRdarQodeen4mDfPnC6RtGzMmLyWmUOkZdZISwajhwEAAAAAAJC+sNycO88J9kWWlEhYXFnRwkJiUf7rW7c77vqkRCUQyyQnRXeUsaYZEpklpanWRlhEcGR3sEha4tGVKMoSTQYZTgCZEbyuk9Bcpd3WOxUXkpYClb3NeS26S1gUXZmJiYt6zTnM0wIAAAAAACAsKUEywbPXX7Gysu8MX3xgIiv8uBtZMd3M1lhUuNxGy1wuOroi1NoPgliEJXCiK8EhFaCjLFpUbKSFRSWKssjYsMTOPCosLqtnt3fX05IWFpVZfpxR8lKn1bm0BwMAAAAAAABg6oSFhIK7Zl1TovJIdMXpBtahrJguZss+i5ASoCAUoEZLhMVOOKlzWIJ4DovbHcyGWkwCi0m2Vw+9VmFxJoDUM9hHQxE7kZEqbS52kuNipYVkJRcOcWzWs6G4qPKrz1V2z+FSBQAAAAAAEJbuZSVHDnCX5CS3b3JWtLi40RWVaL9FsrLQQbk80tg1EpK8FSGbC6MEKAjnbgnXVlxUhMXX+SuBibYoV4nFWHRXMBtl0bLSksNyxIz1WTOqV0veCUdbVjqUlhszbtJ9FF1R5ZsuYqtnK8nLBQAAAAAAAMLicHPu/DWSkfk90w0sJhcmZ4W2qyQRc0kT7ElWrpB8rO03AqdMPx5dacbncWk60mKiKhXSkx3aqpOnVHWXsKD60rv31DH86OmTRamlJUdOwnO1PE+PSCJE3hWWw2asPzQiouWiQr9eSJrbwon4GU7E5+fGEu8jYTH5LOd6GaUMAAAAAACAqRQW3RUsuLbXiPJWYnKhhMWv0z6nksoKCdAGCUiJy1Dl+kaAnO5lB9EcLtHEk0FQo2WLROX6N959p9LtOb369DN5qph58pVLnpQFV1ZmTHQl6g4WRUROsLxk1XYto6UlkWCQtKxR+VdcAeL1iYx0ZQhdwwAAAAAAAISlQ1kJu4LtNQ8TlnBEsLkXbt2uJCpPiGv0nCJHa/acfJj9ZixaEybzc15MkyMpQXCVJGUr7Qoy8nKZxKXESfJZN98kjIpEEZYTJjpCslE3o3wlkpbXz5zeJmkpztoyTfL9CTd6k+msyxkAAAAAAADTLixrB5wM3wi0XPh+rDvYfkNFP1ZJVlYSlMXys03CU9hraFnZa/oxWbFRlv1mGFXheVxWv9lDNCUpP3rqZI6k5Qotl0laclZSZoyg2DUvj7GwZCXLRj1D0nI2gbRsnjmd84S8S+XkZsLuZXFhYQmi8k51MwcMAAAAAAAAUyUsJBh5coa7NgriyoXTfav617+9fS5BWaGsPLSy0nDLi4sLSVLN94PFbwxAVB4Rl6dP5kks1kgc5ltFZTbrhVGWE0pcSFqyXuJIy+ZnTs9TudceKdeN3niyfLayu4hLFwAAAAAATANet0/koYabrSN02VG6AjXXCo/OtZiwLI7UhJGVUFqaTdqOLyQt6w3fPzcMWWFeevdejV57gY5hgY6nvmeOay+2+Gr9UItcjupnmwWvXdmXfndni+pvyx35zB1QwAzfXEpSFgAAAAAAAFMrLNxgJi8pNYJ4o9o+NuKy+sKtO9UEZa00mkFJiYoTWWFZ2XOiLbTUqeyFpXvvLNlRvobJN9+9x3Jxjo6rysf30Cxqm4/dRJ30YARBjgcm4EhSgqIXqf7qjSA+t4wrhfRvGZcuAAAAAACAsBzNcjRhozBRFSfK4ge1QARtZ3/nEcaojOW9mKjwuqnyX/aipc6J+9+4l35SfS9wtIXOe+6g6Zc5omKPWa2VtBgJ093keE6ZjXZl8khqvghWQ1EJ9GLruKEnwkSUBQAAAAAAQFiOkAzOXSlZQYlN2BhO2ihW2w1hzNEGbsDr/JcglmTvRlao8c/zt5z6xrvvjOQcJH/z+3t1OrbFAz/Q0tIyWMC+M9oZ7TN/c+78lQTSss7S1/R94ft+rHtY00higCgLAAAAAACYArJdPCeUlUOjK0FQe+HW7XK7QuipGwdNP+cm6scS7Btq1DGeV2WOhKDnLmCmO1bhkF/V05iQ8ZskLa8+/YwQjWbJmqCZlFJ4khep1hnpLdOxbNFr1o6tn4CjLHKj6QXCc+vZSqEU81TOEkYMAwAAAAAAEJZYQ1pcjslKS3SFVqsJ5IG7gs3rOVvs/C1+OGTxvu4ext3AFr7ZpawYQZmnl7hI0lPcawY5WnP0h49RIZVACHHji59nmahkpNyhn211KzBGWnKy6fOkk1S+dGTFp9eStAQ8PPIa7b5wXFmXfnen/PqZZ5dJWvL0HBIUKZq0VovH9S1ztJqnXcu4jAEAAAAAwKTS0bDGRjSuqS5cDacLVzhPil/72m9vn2onEiQNNx42/PwDKuOBGmXLD0cB2zvQ2w1fRVYqXYhKgaWqEQSlaE6YcIQtzv9Q4R0tLDbqIcOZ69XcKp6sZjx59ez2bscy8MOnTuaovO0TWa9wIpsRj2U98dgMrTN6+/EZT3yMfj6TUfOzHHt+m2dOl7KetzHrDHGsh0xWwyXzdvW5yu45XMYAAAAAAGBS6SiHhdr5l/zW7klGAnhN/64mKOYKyUP+wA/MvCpmzhazva9mrg9WO5UVFqGbxfOcE3Pj/f1m6c8PGuJPtPz5wQEt+2r5i1oOnG2zPKSf8fJAL/WHjcKH+/7G2xc+f5fKLXZyHJzTQse/yBGi6LzUnDRKnOw5Up21TcCnp2z5flD3TR37YZ0LkysUFJB8DwAAAAAAICwinNxxXgmKHzWgfT1qlW5Ai6Dcrgza7bJttKsGvG8a89GkkNWle++sdCgrHPm5e/+gWWL50Ms+ice+WrOksJj8+SNaf7QfismfzTb/TIuLlpe/7Oky6nsNjgJt/6r4+bWEQxJbaamydMWEzJznvh9YccmTYJWOK2fxthoxrOx2u3Pr3STfl3AZAwAAAACAqRcWotjaWLbRFl/3stpqNzIYUSKxyHHDXY965atFN+p1w95PONmkhRr9a3tN/9p7e83cXx42ODoi3iPZ4KWuRIXX+2q7/nBPi8wDWj+w25HU1J3lvT0VaRFc5of7/hUz+WNiaXnp3Xs80lflwDm/Bp1fw4haQ0vf5XblUPVu+jFRcaJaWhIv4jIGAAAAAABTLywkJBetqDRbG9A62X6zXRkqumIa6wdRpEFLi6+6gq1/s4Phi2/Ond942PCvkKwowXh/z4iKkRWOsLxnlg/29kk8GuLBQSPMl+Ht+/sH9LsDtU+0v37++w91mfW9hvhgv1mg473BOTJJj4/qZvXA5tA4omLPvRGIws02Xc5Kv7tTpV2rVD0toqgjW/QP3cIAAAAAAACEhYylGHUBi5ZAS0v9hVu3j53UkbttkZDkbYO9oeYX0ZEWLS2cq9F+hLGYrBz4pfdIQt5noaCFBeM9Iy3vk6Dcp22eG0Xl15jn6dG79OKIhToeFpj3w+frsrjMD5QMKWnJ7/vBRtJIy0u/v1eh1y6ryIqdS0UJXvSYXvtS+6oPrrdGWdz3gjaLuJQBAAAAAMDUCouaLFKIvCMosUYz/au0b3SLi26jPdw23cKorKtJhzCm4yntNfzS+/tNcX+/YYTCSAWtP9w/UDkyjqTUaCnTwt3N5qSQepFigZZVWqpWYPicHjZ0OaGoKFnR6w/3mwXuHpbY84JgtfVcG85EkDwJZzsBokPasvUduMJojpc2L+BSBgAAAAAAk0jSeViKgfutvm5EC6cRvdOuANpvPpxc0iSRN5zH9LCcUFa4a9bGfZYV1aWL1nsNJS4f0uP9RtMVFe5edvV7f/zDcWVzZGjl5U9+Ki9kwLPHl/jcWCw+3A+FTJcn9FDIGSkLvyqeX/lcZXel3fG+9Pt7tVeffqZC5RWbvoxmrXcm28x68tj5VLhb2Otnnq3TU3KuLOr3RHIEpohLGQAAAAAATCKJIizUYH8+9o1+oJK9VUNeN+iDShvJmKf2f05FVpxJJpvh/Chi6xvvvlNLciy0+9pHByQTB03xEUuKkRVe9oysmC5fSyQq59rISsgrf/zHGu27KIU8Z0RHnat6DVP+hyRHH7Ek0WvvN/3lmwnzWai+Nt2oij1/G2mi10mQOB9UYlEWIcIR2uhfvpMBAQAAAAAAAJgoYSELKLR2RwrCxnJQv3TrTrWN8FzQjXQhYlGWMLoSXE9yGKorWNMvKlmhhQWCoyosEfvNptqHZIO7lbGorHdTISQuVe4u5klZ1cceqNwWfg39Wpysr1+fjn0tSZkv/f5emfN8WiNMeq3qs5hAGnfsnJd8TDbiFUojvUe4nAEAAAAAwFQKS6C6hOn8lVhjWTeg247qxUnhTacLWTM2CaKK1mwlOQ7ad/nBgS8e8AhfDS0OvOw1fFdW5khWqr1UCkmLKsdKCx+rfa0H+/q1P6LX3GsGxZsJJ5YkqdhqHjE8MS25dqOPBTxSmCONQSiNwr4PEBYAAAAAADB9wqImjNTSEuau2MeBTu5om79CzexCTFDsWueuVF569149wXEUebLFh01fCcrDg2Y4PDFLlEmaX+pVVlqlxUiQyml5aETpoZEk3m767Uf50sIR7PgmuqIkxXfmsdHbxwpH6Xd3KrrOjTSaLnk24kI8g8sZAAAAAABMnbAQhcCOBuYk3EfRFlFrJxqtQyGrBrof5r/sJDlQ2vfSXjNQorCnREULBIuEYStpvkon0iKFXLQjiPHr6sU3azVE83wiYRGiYs+/6YuWGetV1Or59tIj6oFwoys22qVeABEWAAAAAAAwlcKSC0yTOzCtZjuriYmw1No8P+/HRhSLd4viCEsyYQnm96ilv+9zVyxfDVvMC6OS7IVc6kcFkbRsUdkVcwzqtcPX17PY535dPN9WWv7m9/dqvuC5Zg6pA5G4S1fVjXAJZx0N4gwAAAAAAMB0CUshbCQHbjeksDvSscJC++QfidAI4SaNtxMeNZRxww9yatZ4njHeLE0/bKRv8ShffaynTRtlaTivf2CkpRkEyeZBCbRwxIeGtpEmkW/79CCo2xwi+54IU690eEVczgAAAAAAYBqFxYpHfG1ay5du3WknCp/wWxL29bDIuqxvJhvOuBBNvEhrFhffF9H89eJ6PyuJZKhst/X8MT53BQuHZfYTdsfiAQp8tx6sBGr7aCssUsq33fchlk+EaxkAAAAAAEyjsASt20HYFSxctymgELQ2sKORrZLIioo+NE2uhzsksG7Eq+5glQHUVUUYwWg486iYYZmTCst7sfMPgkg+Ej3fmcXSTbeHrgAAAAAAgGkVFldU3HZx0iZyLCJghSf6ZTJhCThKE4QTJTZtVMLQ5+5gWoyEnZdFqNHN3KR5X4iOJm1srZMgSCgswdFyA2UBAAAAAABTKyxpNoiDLsrjhHQzopgbnbFUB1RX79k8lniUKEgWaWo563jXOl1Ou7lYjrIYyAoAAAAAAJh6YUlHU0a5xPE+DgAAAAAAACAsXSN7fXZV2lKkXjslDmr+kU/YaEj8OGQHZycf3ZLR6rPbu1VckgAAAAAAAHQhLLLFOzpVELu/lLHy8gmf/J4n1ShZgteeWkdH8PInP5UfQF2FYmRfXx+LOqd6V3VhFz1wQOLnxvaUskcdBAAAAAAAYIyFpTWyIWQkHYka2DKKjsQa6Lq8fMKDrGXIDDLSLGpb/85EPYr9rqjAvAbrgT0Wz6xlwjwaKYJPuOdvZUMmFMB4vdv4TncCCQAAAAAAwEQIy3GNZ454bJ453W6ELBMd0ZEJaaITtpH+o6dPJhlhq5qlQvTi6XXGCxvpgQgu9rOSXv7kp+ZttoqSlZZjofNJ2JVLFmw0xXYlk6ZORLIhnp9piVBBVwAAAAAAwNQLS006eSOeEK3f6h+bQyLt81XD3CnHygs14tsdAOd2ZKWsz5AczGR48ZQsON3Civ2sJBKivM1fYUGZpdfmY1DHo6M9O4l0herKM/XgOYsJtiQRlrwuJ16XphqQ/wIAAAAAAKZUWMKGcdSBKeomJttFSGocC/GECKMrUcRFlZFINsgPtmYzWhRmyRD0dkYLRSAW+llJ3/vjH9ZptcVnPUuvOauOIVoyXvuJK3/w1Mk8nXNOhuevhY3/8xIKB+2bt+InhJv/opY6LmcAAAAAADC9wmK7cYVRAZkowvLZ7d2KTZRnvXCT5k3XsAuJDlTK6ydIDtSSzYjHaDmRVZGWpe//6Q+VvtdUIBZns16NX/OEeW0tK6JM59hWFug8i6oOwvPXdRE9lu8kOIp8LGFfujlBsobLGQAAAAAATJ2wUGO85sqKO9qX+fnzbRvrUlZVA92LRMUm0NPvikkOlI5jazYja48pYfFIWDzxeDZT/s4//b/1QVTU9//8h/rjM5kFEqX6iRktTo+pbmHeZkLhupBxRM3WQRhxEuJY6dp49nShNRdIdw0LxfEdXM4AAAAAAGDqhMVQtbLiDOVrunm1nweFG+PhyFpmdC278M9effqZ+SQHQWWscmTlcV5mMtX/+k5tcZCV9d9+/27147OZpcfNMZA4VZ6r7FaSPJfqYN4zCft28cIRz2T9bOX4OVi4nuPJ+lH+i4lUVXA5AwAAAACAqRQWHpo4/FZfRs1mM7pVfvPM6Xyb5+9kTHcovbjDE6sIw6Ukx3F2e7f8WFZWP5bN1D82m50bRoW9cOtO+WMzGVo8kZViKclzfvjUyXk611zWiSxlwgiLqp9KgvfggnxUFt2lhssZAAAAAABMp7AI8Tbv6DkN5Vj3pPZ5LFtKVMxwwK6smEjD/I+ePplPciz0/MUnZzNz/+GXN4eWZP7vdn+9eCLjLX1u561EI3PR+V0Kz9lGl6QZGllHna4neA+KsWGh9Qhrtv7r3HUPlzMAAAAAAJhKYSEqsiVZ3l2oOd12HhRqYJfdRns0l4mJNAhZSnIgPMRx4edvDX0IXzqGRLkzP3zqZJ5Ocf7w89YSR6ut48rYePY0jw6Wj4uiE2lBdzAAAAAAADDNwsKSQGJSfzS6Ei7Fti8kxXUbUch6LUtGic/lHz2VaBLJsYJOdzlr5m0Jz9epA/pXPls5fpQx2n0+iqZEkZVoiGi5g0sZAAAAAABMrbCoRrMQldiQxKbhbPJa8q+fOd2+W5gna26jPRPOFq8a8zkq98okVe4PnjpZyEhZiuRMn2vGkRY657ajjNFuF+hpZhhkGZt00vOQcA8AAAAAACAs/C3/dZ174c4jYucVUXu0TZynfTft7PAq6sAN+Ix5nPG48b386tPP5CelcunU1mLRlYyWlBkvjLbU2o0yprqDCTkfzlvz6Dw2tXYjjAEAAAAAADDxwiJMhCUc7cuLZmw3DelSgjLWqZFeV432sPGuZcWKDBW5MQkV+8OnTl7JeF4xPM+MF4rKjDl/qrfVBKI43zp/TTSPjZKXCi5jAAAAAAAw9cLCo1B5wkwA2TL5oRnxK/f6mdOlNmXUqfF9dSZstHtaVjKmQa8ey+KrTz8z1l3DfvDUyTzVx/KMiabYCEv0WG1zdKWcQFgu2+5ftjtYxhNhhItW13EZAwAAAACAqRcW03i+mrGjW8n4EL0mIbxttzB66jo12GszbgOellkqdJZa4rM6x2Pt1adPFsaxQv/Hv3g6R6dyjSQlN2skzAoZy9ms6QJH9dV2DpfyZ04XqZ7z0fDPIhoOWssLdwfbwmUMAAAAAAAmlWyH+29RQ3lDR1YC862/lRchmr4svn7mdPGFW3cqRxXAUZabc+eXqDF/rRnQc4JA+IFHSyD4sa8eC7EXBCw/qeVmzPzHb+dplT/kV7WDn363llqFenI+63kFKyuzdmEpC/N3ZOW5BKLBI4wpGTRSmPHio4PROlVZ+crXf1wc78tZioCVmP4F9rGe3NSspfp5uK32k7F91WJ+5ovocVNGz/XZ881zm84+DX6O9ML9fee5tiy7P+/nCz3cnm9eK2WqH7xyIbW5ip58eYdH8CvgI3NsqdP1kGquG10TfD3k+nXNgXQZpffrn3/774t6LjER5WYKYSamFrF8zUDYyZH170S4jrbVJNbmh+bj3dmW9n4a29+WYSbANvs8Wg6vAtFyPM4xhc+zPzNPir3OI69vXqO1nNbzE7qObCF2P08IUy/uvrosez+z30YHpm6FtPe6lm+qnWMMy2l57N5jD7lTVa9fzA/0Ojr75n3cj0aIm194ojKYFl6nB1Y8v7HvB6W9hi/2m7542NRrXg7UOqi8cOt221nof108v01lFB9QOQ8aTVUOl/mQtmld3Ws05/7L3btd/xEYQZmnheeIadcQ59fhCufuVVskMD398b326U/fOJHNFE5kPfFYNiP02hOP0/bjWa9O0nLubOX4iR5VdMWT27Ou9NByQi1SlZmV8lS7chJICv/hr9FSGv8/GwhL6xcMtCxRo6Tra4QaOXlzfczjY3ns4etgk66HlR4bvvxZsXzEF0B8za2mLUegp/eL3+9LR7xfZfN+1fp9HP/sv/+vnCfFGjV5S7aRDmGZCGHRf/dSrF7/ar6vf/ckKgXz2YP70WjeX1Q7mgSmLz1/Om4l/WbufLHpB9sPm4GSlD2zWGnZJ+nwg2DuuCiLKSdP5dwgYck9VNKiyyFhqZP4nPvab2939QFKolI0F3Sxh3pRH+LdRl54ZK/ZrEfS4uUeY8HQoqKkhYRj6bnKbttJJzc/c3p7JuMVqZwwQnPCSkuWu8/Jrc9V3lroUVb4j3+75Vs3CMvkCIuVcZaWcpcN07XJuT6AgRsVc51+u26ibNcSfrYudnPNgVRFJWc+3wv9+oxIyhPf+lmBGvvbJCw5aRr/EJaJEha77yJJS1+uI5IVvh9t4C97LODPlKu0rJO8pBZ98zp9wme3dys8MlU2HDEsvmTVSF9yOUE5Nc+Ti1EjXOd3PJbNLHQjKxxRoeWa+YAu9lgv/Idxl8pbo6Xjxtri7Ts1Op8F2y3MnuOMJ7eSyApHV6huim6+itr2dNe7rJ4H5ypkBSSA398Narx09I2U2X8D18dEov72TYO2E5LKijDXXAlVPVSSyIr7GVHsx0F8nGQF95qpYePiT2qpRz9IVuYhK2PX7mAPuEvv3Yrpwjd4YTFCvho1oLWk6G1PLdzY3mwzYpi6CLd3t+i56xwxOKES773Fi9XfVLqQFX6tGyL9MCGPVnaDyu+4r+R//tVvK49lvNXHTBcukrEqicdiwvrdyLqS4gxjrCebFJWzbeZvSfLBghvIdN1IkjZQzX64OUy+tCQejdHIR6cN2rUupAikgOkG1ul9q19/84jSTp+0pPZ+m8Yu7kfjLS436H3s+QuRroTFRllUA9pGVmQ0e71KDhdyjaSl7UVLDe+lGc/bImkpf+n//qrchaxs9LnxnTfSUur0if9299crJ7J0bhmvzrJC59o2NFb+zOkVNTJYS3Ql68iLTDB/y3F85es/nhdIWJvGD46k13AJDYyp4HIHQrHc5TV3BdU8nPe2m3td2lGxj/3tz4qi9x4PYHLvNbgfTQfcjt4maenpfuB1/UQpVrOPRFiibmG0nZMJb3K0++Lnf/HLxU6PwchKaUAVvtGNtJCsLFJdzD2XYDb6jWf/JffzXc7qoZ1VPbYuGT3CWKXHc7mAv5+p5GLK+4Hxb1i0/eLCjC6Vx2fNeGC6dnXbwEv1bz8QAT5LcK8ZpbLAcFkjaek6Wta1sHCUJcO5LI60hI1qIy3U+L6yeeb0fIKyOk7KGbCsuNJS7OQJ537+Vj2JrGhxkxtRfXqRAMa7g62mcB6IrkwnSd/3PKpqakjyeZbrc/lg8O9pP95r3GtAP953fIZMFqVupcXr5VWpHb2oJMV2CYtFAjzV6OZGOElLqg0gkoYVMbxheK+ZIZNTpfyZ02skKIVYREWG87ZYESyf3e45ugKml6SNEQgLAACAURFfMHnS0nH3sJ6ERY30JcXqjNPAjjW4M2rNwxheS1FWOGKzPOQ/xGvdjB52jKzMk4xccbuC6SiV59ZnXQqxhOsc9EA15f3A+IOJHgGuL5A2NVxDoA1rnSbie72+4tnt3RVqZNeyMWnxWnMvCq+fOd3zKA9mtK5RGC2Cj2MtjYJM3sqGkrtMvO7c6IqXMGk/ITv4W4GwQFiA0BN9AdAnJO41uNfgMwoc2QTuZMhjL41XpPb0wkzGRlVcWfHCBnjG80okLV2PEGAiGqM0FG+JjqmnEQ82nj2d8zy5zVGouOR58a5gev6WNGcOLePvZCq5nnC/TVTVVFDDjPSgr7rCM6AD3GtGpywwWuRFByNJpiIsn93erXpSrrK0zHh28aIuYkZiaJ+1JEn4R7Xvxegl8K11moQflxVBsuLlTNc5VWdh/UXiV6c3aTHNg37jtRdrtFrH38pUUaHGaaLGA+1XEfhWaxpAF1PQVz76uy/jXjOF95o0Z7u/+YUnuCx8sTK5XE4aZfHSekXuGpY1o4Zlw0a308UpoxrhPB9JrdOyTSRjfkQru6skfPKReaqbwkwoKp4TlTJ1mFG5LAspdgVzWcWHwNTA189Ch89ZwPUx0awnFVgAekHiXjNt95rFPpS7IJDLMqkknq/LS/NVJXcN82RtxgqKGzHg7Yxc/Npvb3f0wWUiGGsjXtkdJ+G/cOtOmeplK96FTkuKrTOSlaUUZrQ/lDdee5H/+OcEQvaTDl8/p6hx2tGHvdl/TiDSMoks0fuL6AoYCPe//2Xca6YDbtudu/7VfC3tgm9+4Qku8xzEd2K5NHBh4flUTD5LfcaJshhxWfpPb/+2ow8sE7m4lnLF1PvQCOsqCZ9kZZHqpWpkTsw6gkfyUn6ustvXUDpLCy0L5mZSFumO7AGGR900DhapYTrXqay40sLPdxob+IZrvBsT60Ze0UUHDFxa3v/el+heI3GvmdB7DYlKX2TFlRZaWFoWcT+aOPJn37zfNuVD9uOVfzN3fr7pB9f2m4HY9wNx0PTLF/7P2x2FCU3EYlukl7fCF/fSwU+/W3Ze44pIN3rD5XfUGPifn3+uQLKyTdKSm82E+SvVz1V2z+EaBiA9nnx5J+jh6avU0F+Z0norms/irqB6k7j6Bvp+8XXa7dD/FfMlBQAAHAtJRl7oiT25Hd3rgFirJKTH3mO9fpzEZ7d3tzxPLpruTVVqgHfT/WAtRVlRoUpXVhgjF+dSNPWOk/D//Vu/5gjLkpNsX/X0N9oAAAAAAACMHCbqxe3qU6L37noX2u3g9etEzm7vljMkLSeycuFf/cONjoTARD5KKcrKHMlJ7bBf0s/V71OUlo6T8L/4v6vl2YxcJ8FTstKnJHsAAAAAAADSFBebp9aLtLQNUHj9PAmWls9V3qp1KCtFkV43LTViBUnJsQKQsrR0lYT/+V/8cskTErICAAAAAADGTVp6GcylbZvZG6UTNo38NJPsF42MtMXsl9bIOV0l4UNWAAAAAADAGEpLRfRxQA1vxM53W6Q3kz0nwHc0KpnJcUlrBJ2S6doGAAAAAADApDP5wkKN+zRnsi93OlqXIy0cZamkdBwdJ+EDAAAAAAAwhuT6VfBICAs16ksi3ST7Xrt2LaRoiR0n4QMAAAAAADAunH3zPstKoV/lD11YqDHPJ7eRUnGcA7LQLsm+Heb5C2KISfgAAAAAAACMCX1NgxiqsDiTQ6bFwlHDF3chLUNPwgcAAAAAAGCUOfvm/ZLofsJapjLSwiLST7KvpHlwJgl/NaXikIQPAAAAAAAmRVRytPAX8r32lGo7om92WCc5Kkn2CaRlhY71edqcT6E4TsKvpi1WafCVr/+4aN4PK5DPiz4mT/UHKQJa+F9gH0uptvRaqp+H22o/GdtXLeZnvogeN2X0XJ893zy36ezT4OdIL9zfd55ry7L7836+Olb+nX6tHqjR8g4tWx+8cqEqABghnnx5Zxu1MFDyo3xwf/Xy3xfpY68gpczxN6aelM/TY7VNP1OfhB6vpV4H6ufR70S4jral1J/7/D/z8e5s689W2bK/LUPK6LP3sHJ4FYiW43GOKXye/Zl5Uux1Hnl98xqt5bSeH/3PC7ej/TwhTL24++qy7P3MfhvN9znP/DIwP4t9U+0cY1hOy2Nn55o095rrF/Mjfa+hRnTetGkK49umGQuKKZXz9kgKywgm2bdj0dwE0hAszmc5l1bXtR4lhc9p2cgY/pDHn2VqHLIML0FcwATe0MCY8sS3fpanxv6yJ3GvmZR7zcXrNXWvGSVxMZJy2bRp8nibxoq205AMvEuYSbJPcyb7uV6T7Nthyl8UE5SET7LC78MNI464gUxW43CbxKWAqgAADJuPf+tnuNdM8L2GxGXo9xoWFVq4185doRO/ISvjRfnmF55o274eqLA4M9mn9aHVd1lxpKVqpCUNhpqET7JiBzvAzWMyyRlpwYc2AGBofOxvf4Z7zRTca0hahnavIVFZMaJSwtsxtmwm2WnQEZZrKZrvopGIgUGvxyGrSUjCR1h+Om4ky6gGAMCwCHCvmZZ7zcagX9Qke9/AfW7sqdz8whOVkRIWapxzRKGYUnFlM4LXwOEkfJGgr11C1kwXuUFzAX8jU0EJURYAwBCV5XnUwVRQvPiTwUVZSFRsN0N0fR5/EvdcGoiwmCT7tKIJPMrW4ghUcFrRne0h5LOgETs94AMdAIDPH9B3aRmQrNhuhmjHjD+rN7/wRG1khKUfSfbDruE+JOFj2E+ABgMAAIBxZVACgZyoyYC7gq108oS+Css4J9knkJZUk/DNvDQAAAAAAKAFM0EhvoQbf7j9vNDpk/odYdkQY5xkn0Ba0k7CL+E6Bn34YAAAAAD6Sa3PssKicgXVPBFtkrkkwxgPTFio8b0i0pkdnhlakn0CaeHzTCsJf2NISfgAwgIAAAB0S6XP5a+hiqdXVvomLNToZlFJa6i5yggk2bdj3JPwwYTeQD545UIN1QAAAKCf95rrX8337V5z9s37RTGgpH7QN9ZJVM51Kyt9ERYTIUgrH4P/ABZG/V1AEj4YQew1CQAAAPTzXrPU59e4hGoeW7gdz1GVnq+RbMqyYicQSitCkKflL1TutL3BKgl/DCJLYHRvIHOIrgAAAOjzvWbx+sV837oem2GMS6jqsRQVHra4nFaBaUdYWFaQg5EOSMIH3VA1soLcFQAAAH2915CsbPX5dYqo6rESWBaUBRKVU2nKCpNahCXlJHtgBJDqtTpio6PVRJ9HAwFdsSN0zkoFVQFGDFyTgyUvJmBSvQD3mpG+15CoDOrvOs0vwUfxmuLzG8e85Yqpy3fMukqC0te2airCQo1qNuBl/B33BU7CPzUq888Qm2+89uIK3hYAQBJIoudQC4PjyZd3Vibkfrx59+V/jXsNuJBCGdyQXqIGdWWUT9QMLsDw+hkjM6Pca+lqvyUlVWGhxnRe6MkhQX+wSfjnUBUAAAAAmLI2UK+yMtfL6FSDwhGqyiEiUzDyVhSjEZHh47hBx7ba6Yz13dJTDksfZrIHh6OS8FENAAAAAJim9k+Pz18YB1lpJzK08LDAfC5/xQJGy7oYje5tyyQtN8zEnqMrLEJP5IMk+8GAJHwAAAAAgGRsUQO/NmknZQSGu7idooe8LA1ZXtgDWFpWRlJYqPF8RWCouUGzYea5AQAAAAAAR/P2pJ8gC5mJvrC4cOoAR16GFVHqa7SlK2ExSfZr+FsYCtumKx4AAAAAADicqRrenxPgTeSFu43xPH6VIRwGy8o2ScuVoQsLkuyHjk3CBwAAAAAAh1Of1hPnOVBo4VwXjrqUh9BOXSNp2TYTfw5HWASS7EeBYSbhfwLVDwAAAPcaAEZeXDjqwtGWU0MQlyItd53hmnuio2GNTSM5rb5plSm9fnIp1SEn4e8c/PS73VyAVdH97LE8OegSPgYAAADgXgPAWIhLjVaLPAyx0PM0lQbY5t1OY/jjxMJiRqhK6wRXqaG9Mq0XjhG/NOqSk/CrVJed9tN8r4fXzH/l6z/eeOO1FxfxEQAAAOBoZNf3Gkn3mvx3f75R+/YXca8BYPzFhRPyeR6ZroeZTtQlzIxMlVYXpPI0y4qBvzVKKxmsmyT8So+vWSJpuUYLRiwDAABwlHT0dK+RUpbyr/zi2qnv/aKI2gQgXXFxuoptDehl+e+46y5ibSMspjGcVpJ3VSDEK0jY6lSvC7R5Q/SeD2Tfn3Mdvg+9wuH6eZKWkbo9BnyLpH+BfSyl2tJrqX4ebqv9ZGxftZif+SJ63JTRc332fPPcprNPg58jvXB/33muLcvuz/v56lj5d/q1UqRm3uOrH7xyoSIAAGAIfPR3X658/Fs/S+Ve8+nvv6k/JekzUxobsttS6s99/p/5eHe2pZGf+P62DCmlK0iPlMOrwDz2zH3AFivDsqPXkOZJsdd55PXNa7SW03p+9D8v3I7284S+x8nYvrosez+z30bzfc4zvwzMz7y4FUZ3HxlbiUdvS7L1R/Zes3n9Yn4LV/x4igutFoxEDGJuRdtFjEczW+/kiUkiLNsinSR7DgEtcGMdl4iSFnWRpFRcR0n4b7z2Yn2ARg0GT97c5LeffHmHFwySAQAYFrjXTP695trFn9S2acG9ZnzFhSej5C++l8RgRlfjUcQ2OhlF7FhhSTnJfsE00kEkLRWRXsSpZPKMknId78BUUDTighsJAGAY4F4zRfcaSMvYiwtHPQY1ohi3WRMPfewdIyslkV4yzpJpnINHpWU9xQtjw+QbteWN117k14RATgd8TWDuJADAwPnw+1/GvQb3GjBe0lI3+S1zA/jb5Wsm0UT03hGykhfpJtmv4xI4XuhEekn4nbxvV1H1U0PxyZd3iqgGAMAQWEUVTM+95uJParjXTIa4VITOj+7332/p7Jv357sSFqGHOksDJNknwOT1cD5LGv0GOZ9lPsmOb7z24rrAN1/TxCVUAQBg0NxHlGXauIwqmBhpqZv5U86J9L5Y78o7jhKWNPJWkGTfmbTURHpJ+Bc62Bdj3E8PGIYaADAscK/BvQaMr7hUTVL+6rCumX4KyxyS7DuWlopIJyKV+P1747UX+TXRZQ83EQAA6Bvvf+9LuNdMD3lUwcSKy4rQ0ZaBt++9PpW72MXs60CknoSfVFpYkiqo/Yln2qOd+EwCYJgfQK98Cfca3GvA+EtL1UjLQL+A8PpwY+ck+zLe0p7oNQm/G/NdQIMODXbcRI+kgnpDvY0JlSG914mQEvca3Gsm53qeYmnh3BZuq86lVM9ty0hbWKokK+in2iMpJOHvdPoEM5nkHG4kE811nH93H6QfvHJhahvedO78mVAb1GcRSKWxWB/w30hi/vzdf1OX+l4DmcVnbT8/Q2omEgD6Ky78d8zztvQ6QWzb5x8lLN0k1dgGL0hHWmqiuyT8rmexZ2mhZeBhPjAQ+LooT3kdlLtsyGH47+7qoI7PkqEIZr2H92sgs9L/iaTlT9+Zm8P1gXtNAta7/NzGUNqDkxaOtnB7dVF0/2VJ288s75jG8nqHF+gcRgRLXVrYXDtNwl/s9X0wOS2DmDAIDI5F05CZ9oZcpxHgKhpVqu64DiodPm1p2q+5IbIuOo+WLwz6/fqn78zhXjN5LF3/aj6164gbw120g7boeWW8FQMXl7LorqfOapJomHdMY3kpoSWriwlJ9n2Tlk6S8FlWUvmGjEcPo+WUaeDhZjL+srKFalAN760OpIU/0+bQ6I4atB1IC19zaDAMV847aTgsDqvb4x9Wi5V/XCniXjMh9xqSldT/7k1DOOnndief8SD998oOf5z0i751M/JYW2S7HcwkhGvi8GHqKpCVwZDgfVg1EZm+8JWv/5hf/yItRTGyQxZKEfAlTf8C+1jqS1yvpfp5uK32k7F91WJ+5ovocVNGz/XZ881zm84+DX6O9ML9fee5tiy7P+/nq2Pl3+nX6gPq79PkIACHJ1/eKZi/p+IRX8JcpXpbQU0dWndcL5eO+yya5pyfEXuvcrS6IvREfrkjGnero/QZ8dTqzrwn5UX6aCzSOs+fu1J9VEr9KRmuo20ppbA/NB/vzrb+bJUt+9sypIw+ew8rh1eBeeyZ+4B0jil8nv2ZeVLsdR55ffMareW0nh/9z3NaanY/T+h7nIztq8uy9zP7bTTf5zzzy8D8LPZNtXOMYTlHthDlUXeqCv2CIyt9vY7Ovnn/uM9tlt1VRFZGB3q/+H1aPuL9qpr3K/GXqYlbSdRgLpgPvLy5MGqYZ2Uo4jL094HkJe80VgpH3AghLMMRlppdqBGCv89kDbqC8/ck0NjuSPpin0W45kb6/bKNBvt+VUc9enjqlV+wsORNo74g+XqDsIyKsIT3musX8wP9u6eGsG2D5M0XTEiwH21xcd+vmnm/cK8AAAAAAAAAAAAAAAAAAAAAAAAAAAAAAAAAAAAAAAAAAAAAAAAAAAAAAAAAAAAAAAAAAAAAAAAAAAAAAAAAAAAAAAAAAAAAAAAAAAAAAAAAAAAAAAAAAAAAAAAAAAAAUub/CzAATdDUCQ7p7ZMAAAAASUVORK5CYII=;" vertex="1" parent="1">
                    <mxGeometry x="170" y="720" width="152.25" height="30" as="geometry"/>
                </mxCell>
            </root>
        </mxGraphModel>
    </diagram>
</mxfile>